<?xml version="1.0" encoding="UTF-8" standalone="no"?>
<!DOCTYPE svg PUBLIC "-//W3C//DTD SVG 1.1//EN"
 "http://www.w3.org/Graphics/SVG/1.1/DTD/svg11.dtd">
<!-- Generated by graphviz version 2.43.0 (0)
 -->
<!-- Title: DD Pages: 1 -->
<svg width="93pt" height="224pt"
 viewBox="0.00 0.00 92.81 223.60" xmlns="http://www.w3.org/2000/svg" xmlns:xlink="http://www.w3.org/1999/xlink">
<g id="graph0" class="graph" transform="scale(1 1) rotate(0) translate(4 219.6)">
<title>DD</title>
<polygon fill="white" stroke="transparent" points="-4,4 -4,-219.6 88.81,-219.6 88.81,4 -4,4"/>
<!-- root -->
<!-- 308240 -->
<g id="node3" class="node">
<title>308240</title>
<g id="a_node3"><a xlink:title="q1">
<text text-anchor="start" x="32.4" y="-158.5" font-family="Times,serif" font-size="20.00">q</text>
<text text-anchor="start" x="45.4" y="-158.5" font-family="Times,serif" baseline-shift="sub" font-size="12.00">1</text>
<g id="a_node3_0"><a xlink:href="javascript:;" xlink:title="1/√2">
<polyline fill="none" stroke="black" points="42.4,-139.5 42.4,-150.5 28.4,-150.5 "/>
<text text-anchor="start" x="30.4" y="-143.1" font-family="Times,serif" font-size="8.00" fill="white"> 0 </text>
</a>
</g>
<g id="a_node3_1"><a xlink:href="javascript:;" xlink:title="1/√2">
<polyline fill="none" stroke="black" points="56.4,-150.5 42.4,-150.5 42.4,-139.5 "/>
<text text-anchor="start" x="44.4" y="-143.1" font-family="Times,serif" font-size="8.00" fill="white"> 0 </text>
</a>
</g>
<path fill="none" stroke="black" d="M37.4,-139C37.4,-139 47.4,-139 47.4,-139 52.4,-139 57.4,-144 57.4,-149 57.4,-149 57.4,-166 57.4,-166 57.4,-171 52.4,-176 47.4,-176 47.4,-176 37.4,-176 37.4,-176 32.4,-176 27.4,-171 27.4,-166 27.4,-166 27.4,-149 27.4,-149 27.4,-144 32.4,-139 37.4,-139"/>
</a>
</g>
</g>
<!-- root&#45;&gt;308240 -->
<g id="edge1" class="edge">
<title>root&#45;&gt;308240</title>
<g id="a_edge1"><a xlink:title="1">
<path fill="none" stroke="#bf3f3f" stroke-width="3" d="M42.4,-211.86C42.4,-207.63 42.4,-190.04 42.4,-176.2"/>
</a>
</g>
</g>
<!-- t -->
<g id="node2" class="node">
<title>t</title>
<g id="a_node2"><a xlink:title="1">
<polygon fill="none" stroke="black" points="56.9,-30 27.9,-30 27.9,0 56.9,0 56.9,-30"/>
<text text-anchor="start" x="35.9" y="-10" font-family="Times,serif" font-size="20.00">1</text>
</a>
</g>
</g>
<!-- 308208 -->
<g id="node4" class="node">
<title>308208</title>
<g id="a_node4"><a xlink:title="q0">
<text text-anchor="start" x="56.4" y="-85.5" font-family="Times,serif" font-size="20.00">q</text>
<text text-anchor="start" x="69.4" y="-85.5" font-family="Times,serif" baseline-shift="sub" font-size="12.00">0</text>
<g id="a_node4_2"><a xlink:href="javascript:;" xlink:title="0">
<polyline fill="none" stroke="black" points="66.4,-66.5 66.4,-77.5 52.4,-77.5 "/>
<text text-anchor="start" x="54.4" y="-70.1" font-family="Times,serif" font-size="8.00"> 0 </text>
</a>
</g>
<g id="a_node4_3"><a xlink:href="javascript:;" xlink:title="1">
<polyline fill="none" stroke="black" points="80.4,-77.5 66.4,-77.5 66.4,-66.5 "/>
<text text-anchor="start" x="68.4" y="-70.1" font-family="Times,serif" font-size="8.00" fill="white"> 0 </text>
</a>
</g>
<path fill="none" stroke="black" d="M61.4,-66C61.4,-66 71.4,-66 71.4,-66 76.4,-66 81.4,-71 81.4,-76 81.4,-76 81.4,-93 81.4,-93 81.4,-98 76.4,-103 71.4,-103 71.4,-103 61.4,-103 61.4,-103 56.4,-103 51.4,-98 51.4,-93 51.4,-93 51.4,-76 51.4,-76 51.4,-71 56.4,-66 61.4,-66"/>
</a>
</g>
</g>
<!-- 308240&#45;&gt;308208 -->
<g id="edge2" class="edge">
<title>308240:se&#45;&gt;308208</title>
<g id="a_edge2"><a xlink:title="1/√2">
<path fill="none" stroke="#bf3f3f" stroke-width="2.12" d="M56.4,-139C65.62,-129.78 67.81,-114.95 67.87,-103.24"/>
</a>
</g>
</g>
<!-- 308080 -->
<g id="node5" class="node">
<title>308080</title>
<g id="a_node5"><a xlink:title="q0">
<text text-anchor="start" x="8.4" y="-85.5" font-family="Times,serif" font-size="20.00">q</text>
<text text-anchor="start" x="21.4" y="-85.5" font-family="Times,serif" baseline-shift="sub" font-size="12.00">0</text>
<g id="a_node5_4"><a xlink:href="javascript:;" xlink:title="1">
<polyline fill="none" stroke="black" points="18.4,-66.5 18.4,-77.5 4.4,-77.5 "/>
<text text-anchor="start" x="6.4" y="-70.1" font-family="Times,serif" font-size="8.00" fill="white"> 0 </text>
</a>
</g>
<g id="a_node5_5"><a xlink:href="javascript:;" xlink:title="0">
<polyline fill="none" stroke="black" points="32.4,-77.5 18.4,-77.5 18.4,-66.5 "/>
<text text-anchor="start" x="20.4" y="-70.1" font-family="Times,serif" font-size="8.00"> 0 </text>
</a>
</g>
<path fill="none" stroke="black" d="M13.4,-66C13.4,-66 23.4,-66 23.4,-66 28.4,-66 33.4,-71 33.4,-76 33.4,-76 33.4,-93 33.4,-93 33.4,-98 28.4,-103 23.4,-103 23.4,-103 13.4,-103 13.4,-103 8.4,-103 3.4,-98 3.4,-93 3.4,-93 3.4,-76 3.4,-76 3.4,-71 8.4,-66 13.4,-66"/>
</a>
</g>
</g>
<!-- 308240&#45;&gt;308080 -->
<g id="edge3" class="edge">
<title>308240:sw&#45;&gt;308080</title>
<g id="a_edge3"><a xlink:title="1/√2">
<path fill="none" stroke="#bf3f3f" stroke-width="2.12" d="M28.4,-139C19.18,-129.78 17,-114.95 16.94,-103.24"/>
</a>
</g>
</g>
<!-- 308208&#45;&gt;t -->
<g id="edge4" class="edge">
<title>308208:se&#45;&gt;t</title>
<g id="a_edge4"><a xlink:title="1">
<path fill="none" stroke="#bf3f3f" stroke-width="3" d="M80.4,-66C93.43,-52.97 72.7,-35.35 57.1,-24.88"/>
</a>
</g>
</g>
<!-- 308080&#45;&gt;t -->
<g id="edge5" class="edge">
<title>308080:sw&#45;&gt;t</title>
<g id="a_edge5"><a xlink:title="1">
<path fill="none" stroke="#bf3f3f" stroke-width="3" d="M4.4,-66C-8.62,-52.97 12.11,-35.35 27.71,-24.88"/>
</a>
</g>
</g>
</g>
</svg>